<svg width="28" height="28" viewBox="0 0 28 28" fill="none" xmlns="http://www.w3.org/2000/svg">
<g id="&#240;&#159;&#166;&#134; icon &#34;map&#34;">
<g id="Group">
<path id="Vector" d="M9.95342 7.54785C9.17368 7.54785 8.56104 8.16669 8.56104 8.92304C8.56104 9.6794 9.18761 10.2982 9.95342 10.2982C10.7192 10.2982 11.3457 9.6794 11.3457 8.92304C11.3457 8.16669 10.7192 7.54785 9.95342 7.54785Z" fill="white"/>
<path id="Vector_2" d="M27.0957 4.18058C25.9261 1.49896 23.3502 0 19.7579 0H8.08973C3.62019 0 0 3.5755 0 7.98986V19.514C0 23.0619 1.51769 25.606 4.23284 26.7612C4.49739 26.8712 4.80371 26.8025 4.99865 26.6099L26.9426 4.93693C27.1514 4.73066 27.221 4.42811 27.0957 4.18058ZM11.877 14.082C11.334 14.6045 10.6239 14.8521 9.91375 14.8521C9.20364 14.8521 8.49352 14.5908 7.95049 14.082C6.53026 12.7618 4.9708 10.6577 5.56952 8.15488C6.09863 5.88582 8.1315 4.86817 9.91375 4.86817C11.696 4.86817 13.7289 5.88582 14.258 8.16863C14.8428 10.6577 13.2833 12.7618 11.877 14.082Z" fill="white"/>
<path id="Vector_3" d="M24.3235 25.4815C24.6298 25.7841 24.588 26.2792 24.2121 26.4854C22.9868 27.1593 21.4969 27.5031 19.7565 27.5031H8.08834C7.68455 27.5031 7.51746 27.0355 7.79594 26.7605L16.2059 18.4543C16.4844 18.1793 16.916 18.1793 17.1945 18.4543L24.3235 25.4815Z" fill="white"/>
<path id="Vector_4" d="M27.85 7.9883V19.5124C27.85 21.2314 27.5019 22.7166 26.8196 23.913C26.6108 24.2843 26.1095 24.3118 25.8032 24.023L18.6742 16.982C18.3957 16.707 18.3957 16.2807 18.6742 16.0056L27.0842 7.69951C27.3766 7.42447 27.85 7.58949 27.85 7.9883Z" fill="white"/>
</g>
</g>
</svg>
